Coordinates
version=1
nRows=16
nColumns=33
inDegrees=yes

Units are S.I. units (second, meters, Newtons, ...)
Angles are in degrees.

endheader
time	ground_thorax_rot_x	ground_thorax_rot_y	ground_thorax_rot_z	ground_thorax_tx	ground_thorax_ty	ground_thorax_tz	clav_prot_r	clav_elev_r	scapula_abduction_r	scapula_elevation_r	scapula_upward_rot_r	scapula_winging_r	shoulder_elv_r	plane_of_elev_r	axial_rot_r	elbow_flexion_r	pro_sup_r	wrist_flex_r	wrist_dev_r	clav_prot_l	clav_elev_l	scapula_abduction_l	scapula_elevation_l	scapula_upward_rot_l	scapula_winging_l	shoulder_elv_l	plane_of_elev_l	axial_rot_l	elbow_flexion_l	pro_sup_l	wrist_flex_l	wrist_dev_l
      1.50000000	      0.70992380	      4.11004308	     10.12659562	     -0.10046416	      1.03182326	      0.02032397	      7.80256970	     -8.50590128	     15.50358620	     -3.08817714	      3.74852076	     -3.70264757	    -71.07584490	    -73.19140167	     72.20771873	    -61.24447867	   -133.59134814	     53.80235327	    -24.99999983	      7.93689993	      0.94977645	     -8.33498128	    -22.93916307	    -35.19352415	     -3.29344499	     55.47828659	    -36.38599208	     -1.49910562	     57.21026291	     26.94983509	     -0.94892352	    -24.99999983
      1.51000000	      0.69154730	      4.09152328	     10.21700697	     -0.10057828	      1.03153730	      0.02030769	      7.80926868	     -8.54718681	     15.50954664	     -3.11857056	      3.73175944	     -3.68925608	    -71.09191380	    -73.13845686	     72.26977015	    -61.24096774	   -133.58638314	     53.82299385	    -24.99999983	      7.91592045	      0.89740570	     -8.29924053	    -22.87769177	    -35.17305181	     -3.29563687	     55.42784486	    -36.30471778	     -1.51422534	     57.22225407	     26.96230523	     -0.94404965	    -24.99999983
      1.52000000	      0.66855222	      4.07253542	     10.31972670	     -0.10069757	      1.03130626	      0.02028932	      7.81820335	     -8.59510842	     15.52497369	     -3.15888020	      3.72502146	     -3.67643595	    -71.09435784	    -73.09651910	     72.32708377	    -61.23268974	   -133.58236259	     53.84289376	    -24.99999983	      7.89787862	      0.84199313	     -8.26972707	    -22.80757909	    -35.14234777	     -3.29168371	     55.38734796	    -36.21497667	     -1.52734887	     57.21576876	     26.97462577	     -0.93839701	    -24.99999983
      1.53000000	      0.62286420	      3.28389276	     10.24284514	     -0.10100798	      1.03104651	      0.01949969	      9.02224014	     -8.82571506	     17.01809735	     -2.89195344	      2.58008469	     -4.11764713	    -66.21614803	    -72.97082737	     76.19911777	    -60.41637286	   -134.33258773	     57.38526872	    -24.99999983	      7.25906817	      1.72539950	     -6.40506401	    -22.02599335	    -31.63700932	     -3.48615888	     52.92182079	    -37.27515109	     -1.65662867	     56.66087800	     28.99557225	     -0.61319151	    -24.99999983
      1.54000000	      0.59075451	      3.24909409	     10.35766697	     -0.10108088	      1.03078679	      0.01949355	      9.01384484	     -8.84284375	     17.02062156	     -2.92140783	      2.61295926	     -4.11293086	    -66.21120703	    -72.95151226	     76.21749253	    -60.43641273	   -134.33480285	     57.38396036	    -24.99999983	      7.25181914	      1.68223571	     -6.39922942	    -21.97198370	    -31.61430840	     -3.47553598	     52.91949688	    -37.19125749	     -1.66209330	     56.69764332	     28.99158609	     -0.61693556	    -24.99999983
      1.55000000	      0.57616390	      3.23863160	     10.48560763	     -0.10121119	      1.03071916	      0.01948320	      9.00169127	     -8.89119099	     17.03420801	     -2.99038923	      2.67575677	     -4.10302571	    -66.20648347	    -72.90648107	     76.26831650	    -60.48183399	   -134.33926429	     57.38135723	    -24.99999983	      7.23967124	      1.62104600	     -6.38787652	    -21.91133751	    -31.61840737	     -3.47399795	     52.89246040	    -37.10287342	     -1.67926079	     56.72751342	     28.98798754	     -0.62214227	    -24.99999983
      1.56000000	      0.54296109	      3.20169924	     10.59966977	     -0.10128478	      1.03052163	      0.01947479	      8.99314422	     -8.91139279	     17.04422661	     -3.02787474	      2.72217459	     -4.09982483	    -66.19024390	    -72.89205453	     76.28238482	    -60.51927028	   -134.34424666	     57.38180359	    -24.99999983	      7.23706475	      1.57873133	     -6.38922447	    -21.85614306	    -31.59178174	     -3.45886153	     52.89805961	    -37.01804117	     -1.68640093	     56.75638995	     28.98410460	     -0.62718319	    -24.99999983
      1.57000000	      0.50515276	      3.20040202	     10.33758926	     -0.10158837	      1.03071307	      0.01965925	      9.00439368	     -9.07605791	     17.19523801	     -3.27317617	      2.96349482	     -4.10503482	    -65.98588097	    -72.76907010	     76.54810028	    -60.79026040	   -134.45467348	     57.31458399	    -24.99999983	      7.28345165	      1.33622162	     -6.52281221	    -21.61429221	    -31.60752507	     -3.37360950	     53.06676094	    -36.75036327	     -1.68595837	     56.63243272	     28.96048656	     -0.75403615	    -24.99999983
      1.58000000	      0.48108765	      3.17998131	     10.45945346	     -0.10167411	      1.03055755	      0.01959552	      8.99267032	     -9.09121426	     17.20311323	     -3.30890755	      3.01686591	     -4.10429328	    -65.95278962	    -72.76170157	     76.54557472	    -60.82875033	   -134.46336626	     57.31440730	    -24.99999983	      7.28083094	      1.30331555	     -6.52125947	    -21.57329651	    -31.59126548	     -3.36638026	     53.06677459	    -36.68595853	     -1.69320525	     56.66000714	     28.95727438	     -0.76124977	    -24.99999983
      1.59000000	      0.47171235	      3.16715897	     10.57215808	     -0.10176817	      1.03043406	      0.01956910	      8.98058330	     -9.11572625	     17.21471898	     -3.35540256	      3.07716051	     -4.10176760	    -65.92361701	    -72.74389432	     76.55458950	    -60.88754781	   -134.47310555	     57.31748104	    -24.99999983	      7.27835087	      1.27170027	     -6.52204925	    -21.53841008	    -31.58557679	     -3.36087003	     53.06210332	    -36.63316274	     -1.70604746	     56.67888156	     28.95575592	     -0.76923737	    -24.99999983
      1.60000000	      0.63088390	      3.22248865	     10.25363373	     -0.10201390	      1.03038160	      0.01982752	      8.99290728	     -9.14761243	     17.24834829	     -3.39303814	      3.09875437	     -4.10309871	    -65.27438728	    -72.62572052	     76.85130517	    -61.40504530	   -134.90814158	     57.19868896	    -24.99999983	      7.37028828	      0.84377023	     -6.80514276	    -21.25787446	    -31.90759302	     -3.25149975	     53.37512391	    -36.33193250	     -1.88935215	     56.63328281	     28.95444522	     -1.34356179	    -24.99999983
      1.61000000	      0.62100180	      3.21285489	     10.34512723	     -0.10206130	      1.03016279	      0.01982802	      8.98812791	     -9.16026528	     17.25649703	     -3.41644678	      3.12919914	     -4.10033545	    -65.26507985	    -72.62495328	     76.86638818	    -61.43811246	   -134.91376290	     57.20157353	    -24.99999983	      7.37172731	      0.83000783	     -6.81024041	    -21.23674733	    -31.89219152	     -3.24353271	     53.39464638	    -36.30641007	     -1.88528036	     56.63708018	     28.95337570	     -1.35263176	    -24.99999983
      1.62000000	      0.67537261	      3.30794639	     10.50019264	     -0.10244874	      1.03016410	      0.02017123	      8.78689371	     -9.22444867	     16.41719850	     -3.07720448	      2.14615096	     -3.70981980	    -62.79117570	    -73.07831997	     79.41727999	    -61.95238066	   -136.95932696	     56.91028804	    -24.99999983	      7.58725834	      0.11147500	     -7.61563245	    -21.53416714	    -34.00409233	     -3.22575935	     54.84847808	    -35.69457500	     -1.90327248	     56.56721092	     28.97316376	     -4.86639260	    -24.99999983
      1.63000000	      0.67651459	      3.29793292	     10.55672898	     -0.10248660	      1.02992732	      0.02018099	      8.78444701	     -9.23084568	     16.42269357	     -3.09075424	      2.16496253	     -3.70988106	    -62.78267923	    -73.08345926	     79.42075204	    -61.97031893	   -136.95959506	     56.91412884	    -24.99999983	      7.59200088	      0.11026683	     -7.62179367	    -21.52241062	    -33.98329093	     -3.21879933	     54.86318390	    -35.67250620	     -1.90419453	     56.57624028	     28.97213959	     -4.86834296	    -24.99999983
      1.64000000	      0.67623836	      3.28715370	     10.60761407	     -0.10254339	      1.02971522	      0.02019413	      8.78257823	     -9.23741902	     16.42906790	     -3.10407714	      2.18303373	     -3.71091477	    -62.77584635	    -73.08912625	     79.42669647	    -61.99756835	   -136.96084261	     56.92013182	    -24.99999983	      7.59842220	      0.10948210	     -7.63046593	    -21.51139735	    -33.96298121	     -3.21147492	     54.88023816	    -35.65134281	     -1.90688169	     56.58961894	     28.97108843	     -4.87125504	    -24.99999983
      1.65000000	      0.67879397	      3.27160038	     10.65097810	     -0.10259857	      1.02951574	      0.02023957	      8.78184906	     -9.24239883	     16.43458140	     -3.11374548	      2.19561894	     -3.71178248	    -62.77241632	    -73.09487657	     79.43464277	    -62.02920184	   -136.96279928	     56.92761299	    -24.99999983	      7.60652359	      0.10987591	     -7.64188441	    -21.49952054	    -33.93835103	     -3.20244536	     54.90346630	    -35.62688310	     -1.90856565	     56.61297223	     28.96919571	     -4.87582824	    -24.99999983
